<mxfile host="app.diagrams.net" agent="Mozilla/5.0 (Macintosh; Intel Mac OS X 10_15_7) AppleWebKit/537.36 (KHTML, like Gecko) Chrome/139.0.0.0 Safari/537.36" version="28.2.0">
  <diagram name="Page-1" id="uQS9ek2D7PSYEIglThoV">
    <mxGraphModel grid="1" page="1" gridSize="10" guides="1" tooltips="1" connect="1" arrows="1" fold="1" pageScale="1" pageWidth="827" pageHeight="1169" math="0" shadow="0">
      <root>
        <mxCell id="0" />
        <mxCell id="1" parent="0" />
        <mxCell id="oFbbETFREsKXqKu5l48W-3" value="&lt;span style=&quot;background-color: rgb(255, 255, 255);&quot;&gt;Пользователь&lt;/span&gt;" style="shape=umlLifeline;participant=umlActor;perimeter=lifelinePerimeter;whiteSpace=wrap;html=1;container=1;collapsible=0;recursiveResize=0;verticalAlign=top;spacingTop=36;outlineConnect=0;" vertex="1" parent="1">
          <mxGeometry x="899" y="-1064" width="20" height="2404" as="geometry" />
        </mxCell>
        <mxCell id="V4jSgGk0EFePXrGotliR-19" value="" style="html=1;points=[[0,0,0,0,5],[0,1,0,0,-5],[1,0,0,0,5],[1,1,0,0,-5]];perimeter=orthogonalPerimeter;outlineConnect=0;targetShapes=umlLifeline;portConstraint=eastwest;newEdgeStyle={&quot;curved&quot;:0,&quot;rounded&quot;:0};" vertex="1" parent="oFbbETFREsKXqKu5l48W-3">
          <mxGeometry x="5" y="339" width="10" height="210" as="geometry" />
        </mxCell>
        <mxCell id="V4jSgGk0EFePXrGotliR-22" value="" style="html=1;points=[[0,0,0,0,5],[0,1,0,0,-5],[1,0,0,0,5],[1,1,0,0,-5]];perimeter=orthogonalPerimeter;outlineConnect=0;targetShapes=umlLifeline;portConstraint=eastwest;newEdgeStyle={&quot;curved&quot;:0,&quot;rounded&quot;:0};" vertex="1" parent="oFbbETFREsKXqKu5l48W-3">
          <mxGeometry x="5" y="594" width="10" height="246" as="geometry" />
        </mxCell>
        <mxCell id="V4jSgGk0EFePXrGotliR-26" value="" style="html=1;points=[[0,0,0,0,5],[0,1,0,0,-5],[1,0,0,0,5],[1,1,0,0,-5]];perimeter=orthogonalPerimeter;outlineConnect=0;targetShapes=umlLifeline;portConstraint=eastwest;newEdgeStyle={&quot;curved&quot;:0,&quot;rounded&quot;:0};" vertex="1" parent="oFbbETFREsKXqKu5l48W-3">
          <mxGeometry x="5" y="910" width="10" height="234" as="geometry" />
        </mxCell>
        <mxCell id="V4jSgGk0EFePXrGotliR-44" value="" style="html=1;points=[[0,0,0,0,5],[0,1,0,0,-5],[1,0,0,0,5],[1,1,0,0,-5]];perimeter=orthogonalPerimeter;outlineConnect=0;targetShapes=umlLifeline;portConstraint=eastwest;newEdgeStyle={&quot;curved&quot;:0,&quot;rounded&quot;:0};" vertex="1" parent="oFbbETFREsKXqKu5l48W-3">
          <mxGeometry x="5" y="1914" width="10" height="366" as="geometry" />
        </mxCell>
        <mxCell id="V4jSgGk0EFePXrGotliR-14" value="" style="html=1;points=[[0,0,0,0,5],[0,1,0,0,-5],[1,0,0,0,5],[1,1,0,0,-5]];perimeter=orthogonalPerimeter;outlineConnect=0;targetShapes=umlLifeline;portConstraint=eastwest;newEdgeStyle={&quot;curved&quot;:0,&quot;rounded&quot;:0};" vertex="1" parent="oFbbETFREsKXqKu5l48W-3">
          <mxGeometry x="5" y="84" width="10" height="210" as="geometry" />
        </mxCell>
        <mxCell id="oFbbETFREsKXqKu5l48W-4" value=":ТВ-каналы" style="shape=umlLifeline;perimeter=lifelinePerimeter;whiteSpace=wrap;html=1;container=1;collapsible=0;recursiveResize=0;outlineConnect=0;" vertex="1" parent="1">
          <mxGeometry x="1500" y="-1060" width="100" height="2400" as="geometry" />
        </mxCell>
        <mxCell id="V4jSgGk0EFePXrGotliR-15" value="" style="html=1;points=[[0,0,0,0,5],[0,1,0,0,-5],[1,0,0,0,5],[1,1,0,0,-5]];perimeter=orthogonalPerimeter;outlineConnect=0;targetShapes=umlLifeline;portConstraint=eastwest;newEdgeStyle={&quot;curved&quot;:0,&quot;rounded&quot;:0};" vertex="1" parent="oFbbETFREsKXqKu5l48W-4">
          <mxGeometry x="45" y="340" width="10" height="160" as="geometry" />
        </mxCell>
        <mxCell id="V4jSgGk0EFePXrGotliR-20" value="" style="html=1;points=[[0,0,0,0,5],[0,1,0,0,-5],[1,0,0,0,5],[1,1,0,0,-5]];perimeter=orthogonalPerimeter;outlineConnect=0;targetShapes=umlLifeline;portConstraint=eastwest;newEdgeStyle={&quot;curved&quot;:0,&quot;rounded&quot;:0};" vertex="1" parent="oFbbETFREsKXqKu5l48W-4">
          <mxGeometry x="45" y="600" width="10" height="210" as="geometry" />
        </mxCell>
        <mxCell id="V4jSgGk0EFePXrGotliR-23" value="" style="html=1;points=[[0,0,0,0,5],[0,1,0,0,-5],[1,0,0,0,5],[1,1,0,0,-5]];perimeter=orthogonalPerimeter;outlineConnect=0;targetShapes=umlLifeline;portConstraint=eastwest;newEdgeStyle={&quot;curved&quot;:0,&quot;rounded&quot;:0};" vertex="1" parent="oFbbETFREsKXqKu5l48W-4">
          <mxGeometry x="45" y="930" width="10" height="180" as="geometry" />
        </mxCell>
        <mxCell id="oFbbETFREsKXqKu5l48W-7" value="Otium:UI&amp;nbsp;" style="shape=umlLifeline;perimeter=lifelinePerimeter;whiteSpace=wrap;html=1;container=1;collapsible=0;recursiveResize=0;outlineConnect=0;" vertex="1" parent="1">
          <mxGeometry x="1071" y="-1060" width="100" height="2400" as="geometry" />
        </mxCell>
        <mxCell id="V4jSgGk0EFePXrGotliR-18" value="" style="html=1;points=[[0,0,0,0,5],[0,1,0,0,-5],[1,0,0,0,5],[1,1,0,0,-5]];perimeter=orthogonalPerimeter;outlineConnect=0;targetShapes=umlLifeline;portConstraint=eastwest;newEdgeStyle={&quot;curved&quot;:0,&quot;rounded&quot;:0};" vertex="1" parent="oFbbETFREsKXqKu5l48W-7">
          <mxGeometry x="45" y="330" width="10" height="220" as="geometry" />
        </mxCell>
        <mxCell id="V4jSgGk0EFePXrGotliR-21" value="" style="html=1;points=[[0,0,0,0,5],[0,1,0,0,-5],[1,0,0,0,5],[1,1,0,0,-5]];perimeter=orthogonalPerimeter;outlineConnect=0;targetShapes=umlLifeline;portConstraint=eastwest;newEdgeStyle={&quot;curved&quot;:0,&quot;rounded&quot;:0};" vertex="1" parent="oFbbETFREsKXqKu5l48W-7">
          <mxGeometry x="44" y="588" width="10" height="250" as="geometry" />
        </mxCell>
        <mxCell id="V4jSgGk0EFePXrGotliR-25" value="" style="html=1;points=[[0,0,0,0,5],[0,1,0,0,-5],[1,0,0,0,5],[1,1,0,0,-5]];perimeter=orthogonalPerimeter;outlineConnect=0;targetShapes=umlLifeline;portConstraint=eastwest;newEdgeStyle={&quot;curved&quot;:0,&quot;rounded&quot;:0};" vertex="1" parent="oFbbETFREsKXqKu5l48W-7">
          <mxGeometry x="45" y="910" width="10" height="230" as="geometry" />
        </mxCell>
        <mxCell id="oFbbETFREsKXqKu5l48W-8" value=":Пользователь&amp;nbsp;" style="shape=umlLifeline;perimeter=lifelinePerimeter;whiteSpace=wrap;html=1;container=1;collapsible=0;recursiveResize=0;outlineConnect=0;" vertex="1" parent="1">
          <mxGeometry x="1290" y="-1060" width="100" height="2390" as="geometry" />
        </mxCell>
        <mxCell id="V4jSgGk0EFePXrGotliR-33" value="" style="html=1;points=[[0,0,0,0,5],[0,1,0,0,-5],[1,0,0,0,5],[1,1,0,0,-5]];perimeter=orthogonalPerimeter;outlineConnect=0;targetShapes=umlLifeline;portConstraint=eastwest;newEdgeStyle={&quot;curved&quot;:0,&quot;rounded&quot;:0};" vertex="1" parent="oFbbETFREsKXqKu5l48W-8">
          <mxGeometry x="45" y="1220" width="10" height="280" as="geometry" />
        </mxCell>
        <mxCell id="ikeLcuGYJBPaY6vTm3bT-38" value="alt" style="shape=umlFrame;whiteSpace=wrap;html=1;pointerEvents=0;recursiveResize=0;container=1;collapsible=0;width=170;" vertex="1" parent="1">
          <mxGeometry x="700" y="-1000" width="1040" height="2320" as="geometry" />
        </mxCell>
        <mxCell id="ikeLcuGYJBPaY6vTm3bT-39" value="[не авторизован]" style="text;html=1;" vertex="1" parent="ikeLcuGYJBPaY6vTm3bT-38">
          <mxGeometry width="100" height="20" relative="1" as="geometry">
            <mxPoint x="20" y="40" as="offset" />
          </mxGeometry>
        </mxCell>
        <mxCell id="ikeLcuGYJBPaY6vTm3bT-40" value="[авторизован]" style="line;strokeWidth=1;dashed=1;labelPosition=center;verticalLabelPosition=bottom;align=left;verticalAlign=top;spacingLeft=20;spacingTop=15;html=1;whiteSpace=wrap;" vertex="1" parent="ikeLcuGYJBPaY6vTm3bT-38">
          <mxGeometry y="160" width="1040" height="10" as="geometry" />
        </mxCell>
        <mxCell id="ikeLcuGYJBPaY6vTm3bT-41" value="ошибка авторизации" style="html=1;verticalAlign=bottom;endArrow=open;dashed=1;endSize=8;curved=0;rounded=0;" edge="1" parent="ikeLcuGYJBPaY6vTm3bT-38" target="V4jSgGk0EFePXrGotliR-11">
          <mxGeometry x="0.0023" relative="1" as="geometry">
            <mxPoint x="639.5" y="120" as="sourcePoint" />
            <mxPoint x="420" y="120" as="targetPoint" />
            <mxPoint as="offset" />
          </mxGeometry>
        </mxCell>
        <mxCell id="oFbbETFREsKXqKu5l48W-1" style="edgeStyle=none;rounded=0;orthogonalLoop=1;jettySize=auto;html=1;endArrow=blockThin;endFill=1;" edge="1" parent="ikeLcuGYJBPaY6vTm3bT-38" target="V4jSgGk0EFePXrGotliR-11">
          <mxGeometry relative="1" as="geometry">
            <mxPoint x="422" y="40" as="targetPoint" />
            <Array as="points">
              <mxPoint x="350.5" y="40" />
            </Array>
            <mxPoint x="210" y="40" as="sourcePoint" />
          </mxGeometry>
        </mxCell>
        <mxCell id="oFbbETFREsKXqKu5l48W-2" value="авторизация(логин, пароль)" style="edgeLabel;html=1;align=center;verticalAlign=middle;resizable=0;points=[];" connectable="0" vertex="1" parent="oFbbETFREsKXqKu5l48W-1">
          <mxGeometry x="0.0631" y="-3" relative="1" as="geometry">
            <mxPoint x="-7" y="-13" as="offset" />
          </mxGeometry>
        </mxCell>
        <mxCell id="ikeLcuGYJBPaY6vTm3bT-47" value="повторите авторизацию" style="html=1;verticalAlign=bottom;endArrow=open;dashed=1;endSize=8;curved=0;rounded=0;" edge="1" parent="ikeLcuGYJBPaY6vTm3bT-38">
          <mxGeometry relative="1" as="geometry">
            <mxPoint x="420.49999999999955" y="150" as="sourcePoint" />
            <mxPoint x="210" y="150" as="targetPoint" />
            <Array as="points">
              <mxPoint x="320" y="150" />
            </Array>
          </mxGeometry>
        </mxCell>
        <mxCell id="ikeLcuGYJBPaY6vTm3bT-48" value="вы авторизованы" style="html=1;verticalAlign=bottom;endArrow=open;dashed=1;endSize=8;curved=0;rounded=0;" edge="1" parent="ikeLcuGYJBPaY6vTm3bT-38">
          <mxGeometry relative="1" as="geometry">
            <mxPoint x="414.99999999999955" y="220" as="sourcePoint" />
            <mxPoint x="210" y="220" as="targetPoint" />
            <Array as="points">
              <mxPoint x="314.5" y="220" />
            </Array>
          </mxGeometry>
        </mxCell>
        <mxCell id="ikeLcuGYJBPaY6vTm3bT-51" value="alt" style="shape=umlFrame;whiteSpace=wrap;html=1;pointerEvents=0;recursiveResize=0;container=1;collapsible=0;width=170;" vertex="1" parent="ikeLcuGYJBPaY6vTm3bT-38">
          <mxGeometry x="10" y="250" width="1010" height="2050" as="geometry" />
        </mxCell>
        <mxCell id="ikeLcuGYJBPaY6vTm3bT-52" value="[список телеканалов&lt;div&gt;&amp;nbsp;не получен]&lt;/div&gt;" style="text;html=1;" vertex="1" parent="ikeLcuGYJBPaY6vTm3bT-51">
          <mxGeometry width="100" height="20" relative="1" as="geometry">
            <mxPoint x="20" y="40" as="offset" />
          </mxGeometry>
        </mxCell>
        <mxCell id="ikeLcuGYJBPaY6vTm3bT-53" value="[список телеканалов получен]" style="line;strokeWidth=1;dashed=1;labelPosition=center;verticalLabelPosition=bottom;align=left;verticalAlign=top;spacingLeft=20;spacingTop=15;html=1;whiteSpace=wrap;" vertex="1" parent="ikeLcuGYJBPaY6vTm3bT-51">
          <mxGeometry y="125" width="1010" height="55" as="geometry" />
        </mxCell>
        <mxCell id="ikeLcuGYJBPaY6vTm3bT-56" style="edgeStyle=none;rounded=0;orthogonalLoop=1;jettySize=auto;html=1;endArrow=blockThin;endFill=1;" edge="1" parent="ikeLcuGYJBPaY6vTm3bT-51">
          <mxGeometry relative="1" as="geometry">
            <mxPoint x="410" y="40" as="targetPoint" />
            <Array as="points">
              <mxPoint x="363" y="40" />
            </Array>
            <mxPoint x="200" y="40" as="sourcePoint" />
          </mxGeometry>
        </mxCell>
        <mxCell id="ikeLcuGYJBPaY6vTm3bT-57" value="Запрос списка всех телеканалов" style="edgeLabel;html=1;align=center;verticalAlign=middle;resizable=0;points=[];" connectable="0" vertex="1" parent="ikeLcuGYJBPaY6vTm3bT-56">
          <mxGeometry x="0.0981" y="-1" relative="1" as="geometry">
            <mxPoint x="-8" y="-11" as="offset" />
          </mxGeometry>
        </mxCell>
        <mxCell id="ikeLcuGYJBPaY6vTm3bT-58" value="ошибка получения списка" style="html=1;verticalAlign=bottom;endArrow=open;dashed=1;endSize=8;curved=0;rounded=0;" edge="1" parent="ikeLcuGYJBPaY6vTm3bT-51">
          <mxGeometry relative="1" as="geometry">
            <mxPoint x="839.5" y="110" as="sourcePoint" />
            <mxPoint x="420" y="110" as="targetPoint" />
            <Array as="points">
              <mxPoint x="530" y="110" />
            </Array>
          </mxGeometry>
        </mxCell>
        <mxCell id="ikeLcuGYJBPaY6vTm3bT-59" value="GET&lt;br&gt;/channels/list" style="text;html=1;align=center;verticalAlign=middle;resizable=0;points=[];autosize=1;strokeColor=none;fillColor=none;" vertex="1" parent="ikeLcuGYJBPaY6vTm3bT-51">
          <mxGeometry x="441" y="55" width="90" height="40" as="geometry" />
        </mxCell>
        <mxCell id="ikeLcuGYJBPaY6vTm3bT-64" value="список телеканалов не отобразился" style="html=1;verticalAlign=bottom;endArrow=open;dashed=1;endSize=8;curved=0;rounded=0;" edge="1" parent="ikeLcuGYJBPaY6vTm3bT-51">
          <mxGeometry relative="1" as="geometry">
            <mxPoint x="409.5" y="140" as="sourcePoint" />
            <mxPoint x="200" y="140" as="targetPoint" />
            <Array as="points" />
          </mxGeometry>
        </mxCell>
        <mxCell id="ikeLcuGYJBPaY6vTm3bT-65" value="список телеканалов получен&amp;nbsp;" style="html=1;verticalAlign=bottom;endArrow=open;dashed=1;endSize=8;curved=0;rounded=0;" edge="1" parent="ikeLcuGYJBPaY6vTm3bT-51">
          <mxGeometry x="-0.001" relative="1" as="geometry">
            <mxPoint x="829.5" y="180" as="sourcePoint" />
            <mxPoint x="420" y="180" as="targetPoint" />
            <Array as="points">
              <mxPoint x="520" y="180" />
            </Array>
            <mxPoint as="offset" />
          </mxGeometry>
        </mxCell>
        <mxCell id="ikeLcuGYJBPaY6vTm3bT-66" value="отображение списка телеканалов" style="html=1;verticalAlign=bottom;endArrow=open;dashed=1;endSize=8;curved=0;rounded=0;" edge="1" parent="ikeLcuGYJBPaY6vTm3bT-51">
          <mxGeometry x="-0.001" relative="1" as="geometry">
            <mxPoint x="409.5" y="220" as="sourcePoint" />
            <mxPoint x="200" y="220" as="targetPoint" />
            <Array as="points" />
            <mxPoint as="offset" />
          </mxGeometry>
        </mxCell>
        <mxCell id="ikeLcuGYJBPaY6vTm3bT-68" value="alt" style="shape=umlFrame;whiteSpace=wrap;html=1;pointerEvents=0;recursiveResize=0;container=1;collapsible=0;width=170;" vertex="1" parent="ikeLcuGYJBPaY6vTm3bT-51">
          <mxGeometry x="10" y="250" width="980" height="1010" as="geometry" />
        </mxCell>
        <mxCell id="ikeLcuGYJBPaY6vTm3bT-69" value="[не успех&amp;nbsp; просмотра&amp;nbsp;&lt;div&gt;списка телеканалов&lt;br&gt;с фильтрацией&lt;/div&gt;&lt;div&gt;&lt;span style=&quot;background-color: transparent; color: light-dark(rgb(0, 0, 0), rgb(255, 255, 255));&quot;&gt;&amp;nbsp;по категории/рейтингу]&lt;/span&gt;&lt;/div&gt;" style="text;html=1;" vertex="1" parent="ikeLcuGYJBPaY6vTm3bT-68">
          <mxGeometry width="100" height="20" relative="1" as="geometry">
            <mxPoint x="20" y="40" as="offset" />
          </mxGeometry>
        </mxCell>
        <mxCell id="ikeLcuGYJBPaY6vTm3bT-70" value="[успех просмотра списка&lt;div&gt;&amp;nbsp;телеканалов с фильтрацией&lt;br&gt;&amp;nbsp;по категории/рейтингу]&lt;/div&gt;" style="line;strokeWidth=1;dashed=1;labelPosition=center;verticalLabelPosition=bottom;align=left;verticalAlign=top;spacingLeft=20;spacingTop=15;html=1;whiteSpace=wrap;" vertex="1" parent="ikeLcuGYJBPaY6vTm3bT-68">
          <mxGeometry y="200" width="980" height="10" as="geometry" />
        </mxCell>
        <mxCell id="ikeLcuGYJBPaY6vTm3bT-75" value="GET&lt;br&gt;/channels/list?genre=news" style="text;html=1;align=center;verticalAlign=middle;resizable=0;points=[];autosize=1;strokeColor=none;fillColor=none;" vertex="1" parent="ikeLcuGYJBPaY6vTm3bT-68">
          <mxGeometry x="445" y="55" width="170" height="40" as="geometry" />
        </mxCell>
        <mxCell id="ikeLcuGYJBPaY6vTm3bT-77" value="ошибка получения списка телеканалов&lt;br&gt;&amp;nbsp;с фильтрацией по категории/рейтингу" style="html=1;verticalAlign=bottom;endArrow=open;dashed=1;endSize=8;curved=0;rounded=0;" edge="1" parent="ikeLcuGYJBPaY6vTm3bT-68">
          <mxGeometry x="-0.022" relative="1" as="geometry">
            <mxPoint x="825" y="160" as="sourcePoint" />
            <mxPoint x="405" y="160" as="targetPoint" />
            <Array as="points">
              <mxPoint x="535" y="160" />
            </Array>
            <mxPoint as="offset" />
          </mxGeometry>
        </mxCell>
        <mxCell id="ikeLcuGYJBPaY6vTm3bT-78" value="отсуствуют телеканалы&lt;div&gt;&amp;nbsp;в данной категории/рейтинге&lt;/div&gt;" style="html=1;verticalAlign=bottom;endArrow=open;dashed=1;endSize=8;curved=0;rounded=0;" edge="1" parent="ikeLcuGYJBPaY6vTm3bT-68">
          <mxGeometry x="0.0453" relative="1" as="geometry">
            <mxPoint x="400" y="180" as="sourcePoint" />
            <mxPoint x="200" y="180" as="targetPoint" />
            <Array as="points" />
            <mxPoint as="offset" />
          </mxGeometry>
        </mxCell>
        <mxCell id="ikeLcuGYJBPaY6vTm3bT-79" value="список телеканалов получен с фильтрацией по категории/рейтингу" style="html=1;verticalAlign=bottom;endArrow=open;dashed=1;endSize=8;curved=0;rounded=0;" edge="1" parent="ikeLcuGYJBPaY6vTm3bT-68">
          <mxGeometry x="0.0476" relative="1" as="geometry">
            <mxPoint x="825" y="240" as="sourcePoint" />
            <mxPoint x="405" y="240" as="targetPoint" />
            <Array as="points">
              <mxPoint x="535" y="240" />
            </Array>
            <mxPoint as="offset" />
          </mxGeometry>
        </mxCell>
        <mxCell id="ikeLcuGYJBPaY6vTm3bT-80" value="отображение списка&lt;div&gt;&amp;nbsp;телеканалов&lt;/div&gt;&lt;div&gt;&amp;nbsp;с фильтрацией &lt;br&gt;по категории/рейтингу&lt;/div&gt;" style="html=1;verticalAlign=bottom;endArrow=open;dashed=1;endSize=8;curved=0;rounded=0;" edge="1" parent="ikeLcuGYJBPaY6vTm3bT-68">
          <mxGeometry relative="1" as="geometry">
            <mxPoint x="390" y="270" as="sourcePoint" />
            <mxPoint x="190" y="270" as="targetPoint" />
            <Array as="points" />
            <mxPoint as="offset" />
          </mxGeometry>
        </mxCell>
        <mxCell id="ikeLcuGYJBPaY6vTm3bT-108" value="/channels/list?genre=news&amp;amp;rating_min=1.0&amp;amp;rating_max=9.9" style="text;html=1;align=center;verticalAlign=middle;resizable=0;points=[];autosize=1;strokeColor=none;fillColor=none;" vertex="1" parent="ikeLcuGYJBPaY6vTm3bT-68">
          <mxGeometry x="445" y="95" width="340" height="30" as="geometry" />
        </mxCell>
        <mxCell id="ikeLcuGYJBPaY6vTm3bT-109" value="/channels/list?rating_min=1.0&amp;amp;rating_max=9.9" style="text;html=1;align=center;verticalAlign=middle;resizable=0;points=[];autosize=1;strokeColor=none;fillColor=none;" vertex="1" parent="ikeLcuGYJBPaY6vTm3bT-68">
          <mxGeometry x="445" y="80" width="270" height="30" as="geometry" />
        </mxCell>
        <mxCell id="ikeLcuGYJBPaY6vTm3bT-114" value="alt" style="shape=umlFrame;whiteSpace=wrap;html=1;pointerEvents=0;recursiveResize=0;container=1;collapsible=0;width=170;height=30;" vertex="1" parent="ikeLcuGYJBPaY6vTm3bT-68">
          <mxGeometry x="10" y="300" width="960" height="690" as="geometry" />
        </mxCell>
        <mxCell id="ikeLcuGYJBPaY6vTm3bT-115" value="[не успех просмотра&lt;div&gt;&amp;nbsp;информации о телеканале]&lt;/div&gt;" style="text;html=1;" vertex="1" parent="ikeLcuGYJBPaY6vTm3bT-114">
          <mxGeometry width="100" height="20" relative="1" as="geometry">
            <mxPoint x="20" y="40" as="offset" />
          </mxGeometry>
        </mxCell>
        <mxCell id="ikeLcuGYJBPaY6vTm3bT-116" value="[успех просмотра подробной&lt;div&gt;&amp;nbsp;информации о телеканале]&lt;/div&gt;" style="line;strokeWidth=1;dashed=1;labelPosition=center;verticalLabelPosition=bottom;align=left;verticalAlign=top;spacingLeft=20;spacingTop=15;html=1;whiteSpace=wrap;" vertex="1" parent="ikeLcuGYJBPaY6vTm3bT-114">
          <mxGeometry x="-10" y="190" width="960" height="10" as="geometry" />
        </mxCell>
        <mxCell id="ikeLcuGYJBPaY6vTm3bT-117" style="edgeStyle=none;rounded=0;orthogonalLoop=1;jettySize=auto;html=1;endArrow=blockThin;endFill=1;" edge="1" parent="ikeLcuGYJBPaY6vTm3bT-114" target="V4jSgGk0EFePXrGotliR-25">
          <mxGeometry relative="1" as="geometry">
            <mxPoint x="380" y="60" as="targetPoint" />
            <Array as="points">
              <mxPoint x="343" y="60" />
            </Array>
            <mxPoint x="180" y="60" as="sourcePoint" />
          </mxGeometry>
        </mxCell>
        <mxCell id="ikeLcuGYJBPaY6vTm3bT-118" value="Посмотреть информацию о &lt;br&gt;телеканале" style="edgeLabel;html=1;align=center;verticalAlign=middle;resizable=0;points=[];" connectable="0" vertex="1" parent="ikeLcuGYJBPaY6vTm3bT-117">
          <mxGeometry x="0.0981" y="-1" relative="1" as="geometry">
            <mxPoint x="-8" y="-21" as="offset" />
          </mxGeometry>
        </mxCell>
        <mxCell id="ikeLcuGYJBPaY6vTm3bT-119" style="edgeStyle=none;rounded=0;orthogonalLoop=1;jettySize=auto;html=1;endArrow=blockThin;endFill=1;" edge="1" parent="ikeLcuGYJBPaY6vTm3bT-114">
          <mxGeometry relative="1" as="geometry">
            <mxPoint x="810" y="80" as="targetPoint" />
            <Array as="points">
              <mxPoint x="497.33" y="80" />
              <mxPoint x="600.33" y="80" />
              <mxPoint x="768.33" y="80" />
            </Array>
            <mxPoint x="400" y="80" as="sourcePoint" />
          </mxGeometry>
        </mxCell>
        <mxCell id="ikeLcuGYJBPaY6vTm3bT-120" value="Запрос информацию о телеканале" style="edgeLabel;html=1;align=center;verticalAlign=middle;resizable=0;points=[];" connectable="0" vertex="1" parent="ikeLcuGYJBPaY6vTm3bT-119">
          <mxGeometry x="0.0981" y="-1" relative="1" as="geometry">
            <mxPoint x="-35" y="-21" as="offset" />
          </mxGeometry>
        </mxCell>
        <mxCell id="ikeLcuGYJBPaY6vTm3bT-121" value="GET&lt;br&gt;/channels?id=&quot;10001&quot;" style="text;html=1;align=center;verticalAlign=middle;resizable=0;points=[];autosize=1;strokeColor=none;fillColor=none;" vertex="1" parent="ikeLcuGYJBPaY6vTm3bT-114">
          <mxGeometry x="410" y="85" width="140" height="40" as="geometry" />
        </mxCell>
        <mxCell id="ikeLcuGYJBPaY6vTm3bT-122" value="ошибка получения инфо о телеканале" style="html=1;verticalAlign=bottom;endArrow=open;dashed=1;endSize=8;curved=0;rounded=0;" edge="1" parent="ikeLcuGYJBPaY6vTm3bT-114">
          <mxGeometry x="0.021" relative="1" as="geometry">
            <mxPoint x="819" y="150" as="sourcePoint" />
            <mxPoint x="400" y="150" as="targetPoint" />
            <Array as="points">
              <mxPoint x="519" y="150" />
            </Array>
            <mxPoint as="offset" />
          </mxGeometry>
        </mxCell>
        <mxCell id="ikeLcuGYJBPaY6vTm3bT-123" value="отсутствуют данные о телеканале" style="html=1;verticalAlign=bottom;endArrow=open;dashed=1;endSize=8;curved=0;rounded=0;" edge="1" parent="ikeLcuGYJBPaY6vTm3bT-114">
          <mxGeometry x="-0.0427" relative="1" as="geometry">
            <mxPoint x="391" y="180" as="sourcePoint" />
            <mxPoint x="180" y="180" as="targetPoint" />
            <Array as="points" />
            <mxPoint as="offset" />
          </mxGeometry>
        </mxCell>
        <mxCell id="ikeLcuGYJBPaY6vTm3bT-124" value="информация о телеканале получена" style="html=1;verticalAlign=bottom;endArrow=open;dashed=1;endSize=8;curved=0;rounded=0;" edge="1" parent="ikeLcuGYJBPaY6vTm3bT-114">
          <mxGeometry x="-0.001" relative="1" as="geometry">
            <mxPoint x="819" y="240" as="sourcePoint" />
            <mxPoint x="400" y="240" as="targetPoint" />
            <Array as="points">
              <mxPoint x="519" y="240" />
            </Array>
            <mxPoint as="offset" />
          </mxGeometry>
        </mxCell>
        <mxCell id="ikeLcuGYJBPaY6vTm3bT-125" value="оторажение информации о телеканале" style="html=1;verticalAlign=bottom;endArrow=open;dashed=1;endSize=8;curved=0;rounded=0;" edge="1" parent="ikeLcuGYJBPaY6vTm3bT-114">
          <mxGeometry x="0.0521" relative="1" as="geometry">
            <mxPoint x="391" y="270" as="sourcePoint" />
            <mxPoint x="180" y="270" as="targetPoint" />
            <Array as="points" />
            <mxPoint as="offset" />
          </mxGeometry>
        </mxCell>
        <mxCell id="ikeLcuGYJBPaY6vTm3bT-126" value="alt" style="shape=umlFrame;whiteSpace=wrap;html=1;pointerEvents=0;recursiveResize=0;container=1;collapsible=0;width=170;" vertex="1" parent="ikeLcuGYJBPaY6vTm3bT-114">
          <mxGeometry x="10" y="310" width="940" height="370" as="geometry" />
        </mxCell>
        <mxCell id="ikeLcuGYJBPaY6vTm3bT-127" value="[не успех добавления&lt;br&gt;&amp;nbsp;телеканала&lt;div&gt;&amp;nbsp;в избранное]&lt;/div&gt;" style="text;html=1;" vertex="1" parent="ikeLcuGYJBPaY6vTm3bT-126">
          <mxGeometry width="100" height="20" relative="1" as="geometry">
            <mxPoint x="20" y="40" as="offset" />
          </mxGeometry>
        </mxCell>
        <mxCell id="ikeLcuGYJBPaY6vTm3bT-128" value="[успех добавление&lt;div&gt;&amp;nbsp;в избранное]&lt;/div&gt;" style="line;strokeWidth=1;dashed=1;labelPosition=center;verticalLabelPosition=bottom;align=left;verticalAlign=top;spacingLeft=20;spacingTop=15;html=1;whiteSpace=wrap;" vertex="1" parent="ikeLcuGYJBPaY6vTm3bT-126">
          <mxGeometry y="250" width="940" height="10" as="geometry" />
        </mxCell>
        <mxCell id="ikeLcuGYJBPaY6vTm3bT-129" style="edgeStyle=none;rounded=0;orthogonalLoop=1;jettySize=auto;html=1;endArrow=blockThin;endFill=1;" edge="1" parent="ikeLcuGYJBPaY6vTm3bT-126">
          <mxGeometry relative="1" as="geometry">
            <mxPoint x="382" y="60" as="targetPoint" />
            <Array as="points">
              <mxPoint x="333" y="60" />
            </Array>
            <mxPoint x="170" y="60" as="sourcePoint" />
          </mxGeometry>
        </mxCell>
        <mxCell id="ikeLcuGYJBPaY6vTm3bT-130" value="Добавить телеканал в избранное" style="edgeLabel;html=1;align=center;verticalAlign=middle;resizable=0;points=[];" connectable="0" vertex="1" parent="ikeLcuGYJBPaY6vTm3bT-129">
          <mxGeometry x="0.0981" y="-1" relative="1" as="geometry">
            <mxPoint x="-16" y="-21" as="offset" />
          </mxGeometry>
        </mxCell>
        <mxCell id="ikeLcuGYJBPaY6vTm3bT-131" style="edgeStyle=none;rounded=0;orthogonalLoop=1;jettySize=auto;html=1;endArrow=blockThin;endFill=1;" edge="1" parent="ikeLcuGYJBPaY6vTm3bT-126">
          <mxGeometry relative="1" as="geometry">
            <mxPoint x="600" y="70" as="targetPoint" />
            <Array as="points">
              <mxPoint x="487.33333333333303" y="70" />
              <mxPoint x="590.333333333333" y="70" />
            </Array>
            <mxPoint x="380" y="70" as="sourcePoint" />
          </mxGeometry>
        </mxCell>
        <mxCell id="ikeLcuGYJBPaY6vTm3bT-132" value="запрос на добавление &lt;br&gt;телеканала в избранное" style="edgeLabel;html=1;align=center;verticalAlign=middle;resizable=0;points=[];" connectable="0" vertex="1" parent="ikeLcuGYJBPaY6vTm3bT-131">
          <mxGeometry x="0.0981" y="-1" relative="1" as="geometry">
            <mxPoint x="-11" y="-21" as="offset" />
          </mxGeometry>
        </mxCell>
        <mxCell id="ikeLcuGYJBPaY6vTm3bT-134" value="&lt;pre style=&quot;overflow: hidden; font-family: IBMPlexMono, Menlo, Monaco, &amp;quot;Courier New&amp;quot;, monospace; line-height: 1.5; height: 72px; text-align: left; word-break: normal; overflow-wrap: normal; tab-size: 4; hyphens: none; margin: 0px !important; padding: 5px 12px !important;&quot; class=&quot;language-json&quot;&gt;&lt;code style=&quot;font-family: IBMPlexMono, SFMono-Regular, Menlo, Monaco, Consolas, &amp;quot;Liberation Mono&amp;quot;, &amp;quot;Courier New&amp;quot;, monospace; font-size: 1em; word-spacing: normal; word-break: normal; overflow-wrap: normal; line-height: 1.5; tab-size: 4; hyphens: none; padding: 0px !important; border: 0px !important; border-radius: 0px !important;&quot; class=&quot;language-json highlighted-code__code&quot;&gt;&lt;font style=&quot;color: rgb(27, 27, 27);&quot;&gt;&lt;span style=&quot;color: rgb(95, 99, 100);&quot; class=&quot;token punctuation&quot;&gt;{&lt;/span&gt;&lt;br&gt;    &lt;span style=&quot;color: rgb(201, 44, 44);&quot; class=&quot;token property&quot;&gt;&quot;type&quot;&lt;/span&gt;&lt;span style=&quot;color: rgb(166, 127, 89);&quot; class=&quot;token operator&quot;&gt;:&lt;/span&gt; &lt;span style=&quot;color: rgb(47, 156, 10);&quot; class=&quot;token string&quot;&gt;&quot;channel&quot;&lt;/span&gt;&lt;span style=&quot;color: rgb(95, 99, 100);&quot; class=&quot;token punctuation&quot;&gt;,&lt;/span&gt;&lt;br&gt;    &lt;span style=&quot;color: rgb(201, 44, 44);&quot; class=&quot;token property&quot;&gt;&quot;id&quot;&lt;/span&gt;&lt;span style=&quot;color: rgb(166, 127, 89);&quot; class=&quot;token operator&quot;&gt;:&lt;/span&gt; &lt;span style=&quot;color: rgb(47, 156, 10);&quot; class=&quot;token string&quot;&gt;&quot;100001&quot;&lt;/span&gt;&lt;br&gt;&lt;span style=&quot;color: rgb(95, 99, 100);&quot; class=&quot;token punctuation&quot;&gt;}&lt;/span&gt;&lt;/font&gt;&lt;/code&gt;&lt;/pre&gt;" style="text;html=1;align=center;verticalAlign=middle;resizable=0;points=[];autosize=1;strokeColor=none;fillColor=none;" vertex="1" parent="ikeLcuGYJBPaY6vTm3bT-126">
          <mxGeometry x="385" y="90" width="210" height="100" as="geometry" />
        </mxCell>
        <mxCell id="ikeLcuGYJBPaY6vTm3bT-136" value="телеканал нельзя &lt;br&gt;добавить/ телеканал&lt;br&gt;&amp;nbsp;уже есть в избранном" style="html=1;verticalAlign=bottom;endArrow=open;dashed=1;endSize=8;curved=0;rounded=0;" edge="1" parent="ikeLcuGYJBPaY6vTm3bT-126">
          <mxGeometry x="-0.0454" relative="1" as="geometry">
            <mxPoint x="381" y="230" as="sourcePoint" />
            <mxPoint x="170" y="230" as="targetPoint" />
            <Array as="points" />
            <mxPoint as="offset" />
          </mxGeometry>
        </mxCell>
        <mxCell id="ikeLcuGYJBPaY6vTm3bT-138" value="телеканал теперь в избранном" style="html=1;verticalAlign=bottom;endArrow=open;dashed=1;endSize=8;curved=0;rounded=0;" edge="1" parent="ikeLcuGYJBPaY6vTm3bT-126">
          <mxGeometry x="0.0521" relative="1" as="geometry">
            <mxPoint x="381" y="330" as="sourcePoint" />
            <mxPoint x="170" y="330" as="targetPoint" />
            <Array as="points" />
            <mxPoint as="offset" />
          </mxGeometry>
        </mxCell>
        <mxCell id="V4jSgGk0EFePXrGotliR-5" value="телеканал добавлен в избранное" style="html=1;verticalAlign=bottom;endArrow=open;dashed=1;endSize=8;curved=0;rounded=0;" edge="1" parent="ikeLcuGYJBPaY6vTm3bT-126" source="oFbbETFREsKXqKu5l48W-8">
          <mxGeometry x="-0.0476" relative="1" as="geometry">
            <mxPoint x="590" y="310" as="sourcePoint" />
            <mxPoint x="390" y="310" as="targetPoint" />
            <Array as="points">
              <mxPoint x="430" y="310" />
            </Array>
            <mxPoint as="offset" />
          </mxGeometry>
        </mxCell>
        <mxCell id="V4jSgGk0EFePXrGotliR-34" value="" style="html=1;points=[[0,0,0,0,5],[0,1,0,0,-5],[1,0,0,0,5],[1,1,0,0,-5]];perimeter=orthogonalPerimeter;outlineConnect=0;targetShapes=umlLifeline;portConstraint=eastwest;newEdgeStyle={&quot;curved&quot;:0,&quot;rounded&quot;:0};" vertex="1" parent="ikeLcuGYJBPaY6vTm3bT-126">
          <mxGeometry x="376" y="50" width="10" height="300" as="geometry" />
        </mxCell>
        <mxCell id="V4jSgGk0EFePXrGotliR-36" value="" style="html=1;points=[[0,0,0,0,5],[0,1,0,0,-5],[1,0,0,0,5],[1,1,0,0,-5]];perimeter=orthogonalPerimeter;outlineConnect=0;targetShapes=umlLifeline;portConstraint=eastwest;newEdgeStyle={&quot;curved&quot;:0,&quot;rounded&quot;:0};" vertex="1" parent="ikeLcuGYJBPaY6vTm3bT-126">
          <mxGeometry x="160" y="40" width="10" height="310" as="geometry" />
        </mxCell>
        <mxCell id="V4jSgGk0EFePXrGotliR-48" value="ошибка добавления&lt;br&gt;&amp;nbsp;телеканала в избранное" style="html=1;verticalAlign=bottom;endArrow=open;dashed=1;endSize=8;curved=0;rounded=0;" edge="1" parent="ikeLcuGYJBPaY6vTm3bT-126" target="V4jSgGk0EFePXrGotliR-34">
          <mxGeometry x="0.021" relative="1" as="geometry">
            <mxPoint x="590" y="199.23000000000002" as="sourcePoint" />
            <mxPoint x="385" y="199.70000000000005" as="targetPoint" />
            <Array as="points" />
            <mxPoint as="offset" />
          </mxGeometry>
        </mxCell>
        <mxCell id="ikeLcuGYJBPaY6vTm3bT-139" value="alt" style="shape=umlFrame;whiteSpace=wrap;html=1;pointerEvents=0;recursiveResize=0;container=1;collapsible=0;width=170;" vertex="1" parent="ikeLcuGYJBPaY6vTm3bT-51">
          <mxGeometry x="10" y="1270" width="980" height="760" as="geometry" />
        </mxCell>
        <mxCell id="ikeLcuGYJBPaY6vTm3bT-140" value="[не успех просмотра&lt;div&gt;&amp;nbsp;избранного]&lt;/div&gt;" style="text;html=1;" vertex="1" parent="ikeLcuGYJBPaY6vTm3bT-139">
          <mxGeometry width="100" height="20" relative="1" as="geometry">
            <mxPoint x="20" y="40" as="offset" />
          </mxGeometry>
        </mxCell>
        <mxCell id="ikeLcuGYJBPaY6vTm3bT-141" value="[успех просмотра&lt;div&gt;&amp;nbsp;избранного]&lt;/div&gt;" style="line;strokeWidth=1;dashed=1;labelPosition=center;verticalLabelPosition=bottom;align=left;verticalAlign=top;spacingLeft=20;spacingTop=15;html=1;whiteSpace=wrap;" vertex="1" parent="ikeLcuGYJBPaY6vTm3bT-139">
          <mxGeometry y="200" width="980" height="10" as="geometry" />
        </mxCell>
        <mxCell id="ikeLcuGYJBPaY6vTm3bT-142" style="edgeStyle=none;rounded=0;orthogonalLoop=1;jettySize=auto;html=1;endArrow=blockThin;endFill=1;" edge="1" parent="ikeLcuGYJBPaY6vTm3bT-139" target="V4jSgGk0EFePXrGotliR-40">
          <mxGeometry relative="1" as="geometry">
            <mxPoint x="402" y="50" as="targetPoint" />
            <Array as="points">
              <mxPoint x="353" y="50" />
            </Array>
            <mxPoint x="190" y="50" as="sourcePoint" />
          </mxGeometry>
        </mxCell>
        <mxCell id="ikeLcuGYJBPaY6vTm3bT-143" value="Посмотреть список избранного" style="edgeLabel;html=1;align=center;verticalAlign=middle;resizable=0;points=[];" connectable="0" vertex="1" parent="ikeLcuGYJBPaY6vTm3bT-142">
          <mxGeometry x="0.0981" y="-1" relative="1" as="geometry">
            <mxPoint x="-8" y="-21" as="offset" />
          </mxGeometry>
        </mxCell>
        <mxCell id="ikeLcuGYJBPaY6vTm3bT-146" style="edgeStyle=none;rounded=0;orthogonalLoop=1;jettySize=auto;html=1;endArrow=blockThin;endFill=1;entryX=0.843;entryY=0.004;entryDx=0;entryDy=0;entryPerimeter=0;" edge="1" parent="ikeLcuGYJBPaY6vTm3bT-139" target="ikeLcuGYJBPaY6vTm3bT-148">
          <mxGeometry relative="1" as="geometry">
            <mxPoint x="829.333333333333" y="64" as="targetPoint" />
            <Array as="points">
              <mxPoint x="507.33333333333303" y="64" />
              <mxPoint x="610.333333333333" y="64" />
            </Array>
            <mxPoint x="400" y="64" as="sourcePoint" />
          </mxGeometry>
        </mxCell>
        <mxCell id="ikeLcuGYJBPaY6vTm3bT-147" value="запросить список избранного" style="edgeLabel;html=1;align=center;verticalAlign=middle;resizable=0;points=[];" connectable="0" vertex="1" parent="ikeLcuGYJBPaY6vTm3bT-146">
          <mxGeometry x="0.0981" y="-1" relative="1" as="geometry">
            <mxPoint x="-12" y="-15" as="offset" />
          </mxGeometry>
        </mxCell>
        <mxCell id="ikeLcuGYJBPaY6vTm3bT-149" value="ошибка отображения избранного" style="html=1;verticalAlign=bottom;endArrow=open;dashed=1;endSize=8;curved=0;rounded=0;" edge="1" parent="ikeLcuGYJBPaY6vTm3bT-139" target="V4jSgGk0EFePXrGotliR-40">
          <mxGeometry x="0.021" relative="1" as="geometry">
            <mxPoint x="620" y="180" as="sourcePoint" />
            <mxPoint x="400" y="180" as="targetPoint" />
            <Array as="points">
              <mxPoint x="529" y="180" />
            </Array>
            <mxPoint as="offset" />
          </mxGeometry>
        </mxCell>
        <mxCell id="ikeLcuGYJBPaY6vTm3bT-150" value="избранное не доступно или пустое" style="html=1;verticalAlign=bottom;endArrow=open;dashed=1;endSize=8;curved=0;rounded=0;" edge="1" parent="ikeLcuGYJBPaY6vTm3bT-139">
          <mxGeometry x="-0.0427" relative="1" as="geometry">
            <mxPoint x="401" y="190" as="sourcePoint" />
            <mxPoint x="190" y="190" as="targetPoint" />
            <Array as="points" />
            <mxPoint as="offset" />
          </mxGeometry>
        </mxCell>
        <mxCell id="ikeLcuGYJBPaY6vTm3bT-151" value="данные о избранном" style="html=1;verticalAlign=bottom;endArrow=open;dashed=1;endSize=8;curved=0;rounded=0;" edge="1" parent="ikeLcuGYJBPaY6vTm3bT-139" target="V4jSgGk0EFePXrGotliR-40">
          <mxGeometry x="-0.001" relative="1" as="geometry">
            <mxPoint x="620" y="240" as="sourcePoint" />
            <mxPoint x="400" y="240" as="targetPoint" />
            <Array as="points">
              <mxPoint x="529" y="240" />
            </Array>
            <mxPoint as="offset" />
          </mxGeometry>
        </mxCell>
        <mxCell id="ikeLcuGYJBPaY6vTm3bT-152" value="отображение избранного" style="html=1;verticalAlign=bottom;endArrow=open;dashed=1;endSize=8;curved=0;rounded=0;" edge="1" parent="ikeLcuGYJBPaY6vTm3bT-139">
          <mxGeometry x="0.0521" relative="1" as="geometry">
            <mxPoint x="401" y="260" as="sourcePoint" />
            <mxPoint x="190" y="260" as="targetPoint" />
            <Array as="points" />
            <mxPoint as="offset" />
          </mxGeometry>
        </mxCell>
        <mxCell id="ikeLcuGYJBPaY6vTm3bT-153" value="alt" style="shape=umlFrame;whiteSpace=wrap;html=1;pointerEvents=0;recursiveResize=0;container=1;collapsible=0;width=170;" vertex="1" parent="ikeLcuGYJBPaY6vTm3bT-139">
          <mxGeometry x="10" y="290" width="950" height="420" as="geometry" />
        </mxCell>
        <mxCell id="ikeLcuGYJBPaY6vTm3bT-154" value="[не успех удаления&amp;nbsp;&lt;div&gt;телеканала из избранного]&lt;/div&gt;" style="text;html=1;" vertex="1" parent="ikeLcuGYJBPaY6vTm3bT-153">
          <mxGeometry width="100" height="20" relative="1" as="geometry">
            <mxPoint x="20" y="40" as="offset" />
          </mxGeometry>
        </mxCell>
        <mxCell id="ikeLcuGYJBPaY6vTm3bT-155" value="[успех удаления&amp;nbsp;&lt;br&gt;телеканала из избранного]" style="line;strokeWidth=1;dashed=1;labelPosition=center;verticalLabelPosition=bottom;align=left;verticalAlign=top;spacingLeft=20;spacingTop=15;html=1;whiteSpace=wrap;" vertex="1" parent="ikeLcuGYJBPaY6vTm3bT-153">
          <mxGeometry y="240" width="950" height="80" as="geometry" />
        </mxCell>
        <mxCell id="ikeLcuGYJBPaY6vTm3bT-156" style="edgeStyle=none;rounded=0;orthogonalLoop=1;jettySize=auto;html=1;endArrow=blockThin;endFill=1;" edge="1" parent="ikeLcuGYJBPaY6vTm3bT-153">
          <mxGeometry relative="1" as="geometry">
            <mxPoint x="392" y="50" as="targetPoint" />
            <Array as="points">
              <mxPoint x="343" y="50" />
            </Array>
            <mxPoint x="180" y="50" as="sourcePoint" />
          </mxGeometry>
        </mxCell>
        <mxCell id="ikeLcuGYJBPaY6vTm3bT-157" value="Удалить телеканал из избранного" style="edgeLabel;html=1;align=center;verticalAlign=middle;resizable=0;points=[];" connectable="0" vertex="1" parent="ikeLcuGYJBPaY6vTm3bT-156">
          <mxGeometry x="0.0981" y="-1" relative="1" as="geometry">
            <mxPoint x="-8" y="-11" as="offset" />
          </mxGeometry>
        </mxCell>
        <mxCell id="ikeLcuGYJBPaY6vTm3bT-158" style="edgeStyle=none;rounded=0;orthogonalLoop=1;jettySize=auto;html=1;endArrow=blockThin;endFill=1;" edge="1" parent="ikeLcuGYJBPaY6vTm3bT-153">
          <mxGeometry relative="1" as="geometry">
            <mxPoint x="610" y="70" as="targetPoint" />
            <Array as="points">
              <mxPoint x="497.33333333333303" y="70" />
              <mxPoint x="600.333333333333" y="70" />
            </Array>
            <mxPoint x="390" y="70" as="sourcePoint" />
          </mxGeometry>
        </mxCell>
        <mxCell id="ikeLcuGYJBPaY6vTm3bT-159" value="запрос на удаление&lt;br&gt;&amp;nbsp;телеканала из избранного" style="edgeLabel;html=1;align=center;verticalAlign=middle;resizable=0;points=[];" connectable="0" vertex="1" parent="ikeLcuGYJBPaY6vTm3bT-158">
          <mxGeometry x="0.0981" y="-1" relative="1" as="geometry">
            <mxPoint x="-6" y="-21" as="offset" />
          </mxGeometry>
        </mxCell>
        <mxCell id="ikeLcuGYJBPaY6vTm3bT-163" value="&lt;pre class=&quot;language-json&quot; style=&quot;forced-color-adjust: none; color: rgb(0, 0, 0); font-size: 12px; font-style: normal; font-variant-ligatures: normal; font-variant-caps: normal; font-weight: 400; letter-spacing: normal; orphans: 2; text-indent: 0px; text-transform: none; widows: 2; word-spacing: 0px; -webkit-text-stroke-width: 0px; text-decoration-thickness: initial; text-decoration-style: initial; text-decoration-color: initial; overflow: hidden; font-family: IBMPlexMono, Menlo, Monaco, &amp;quot;Courier New&amp;quot;, monospace; line-height: 1.5; height: 72px; text-align: left; word-break: normal; overflow-wrap: normal; tab-size: 4; hyphens: none; margin: 0px !important; padding: 5px 12px !important;&quot;&gt;&lt;code class=&quot;language-json highlighted-code__code&quot; style=&quot;forced-color-adjust: none; font-family: IBMPlexMono, SFMono-Regular, Menlo, Monaco, Consolas, &amp;quot;Liberation Mono&amp;quot;, &amp;quot;Courier New&amp;quot;, monospace; font-size: 1em; word-spacing: normal; word-break: normal; overflow-wrap: normal; line-height: 1.5; tab-size: 4; hyphens: none; padding: 0px !important; border: 0px !important; border-radius: 0px !important;&quot;&gt;&lt;font style=&quot;forced-color-adjust: none; color: rgb(27, 27, 27);&quot;&gt;&lt;span class=&quot;token punctuation&quot; style=&quot;forced-color-adjust: none; color: rgb(95, 99, 100);&quot;&gt;{&lt;/span&gt;&lt;br style=&quot;forced-color-adjust: none;&quot;&gt;    &lt;span class=&quot;token property&quot; style=&quot;forced-color-adjust: none; color: rgb(201, 44, 44);&quot;&gt;&quot;type&quot;&lt;/span&gt;&lt;span class=&quot;token operator&quot; style=&quot;forced-color-adjust: none; color: rgb(166, 127, 89);&quot;&gt;:&lt;/span&gt; &lt;span class=&quot;token string&quot; style=&quot;forced-color-adjust: none; color: rgb(47, 156, 10);&quot;&gt;&quot;channel&quot;&lt;/span&gt;&lt;span class=&quot;token punctuation&quot; style=&quot;forced-color-adjust: none; color: rgb(95, 99, 100);&quot;&gt;,&lt;/span&gt;&lt;br style=&quot;forced-color-adjust: none;&quot;&gt;    &lt;span class=&quot;token property&quot; style=&quot;forced-color-adjust: none; color: rgb(201, 44, 44);&quot;&gt;&quot;id&quot;&lt;/span&gt;&lt;span class=&quot;token operator&quot; style=&quot;forced-color-adjust: none; color: rgb(166, 127, 89);&quot;&gt;:&lt;/span&gt; &lt;span class=&quot;token string&quot; style=&quot;forced-color-adjust: none; color: rgb(47, 156, 10);&quot;&gt;&quot;100001&quot;&lt;/span&gt;&lt;br style=&quot;forced-color-adjust: none;&quot;&gt;&lt;span class=&quot;token punctuation&quot; style=&quot;forced-color-adjust: none; color: rgb(95, 99, 100);&quot;&gt;}&lt;/span&gt;&lt;/font&gt;&lt;/code&gt;&lt;/pre&gt;" style="text;whiteSpace=wrap;html=1;strokeColor=none;" vertex="1" parent="ikeLcuGYJBPaY6vTm3bT-153">
          <mxGeometry x="407" y="130" width="220" height="110" as="geometry" />
        </mxCell>
        <mxCell id="ikeLcuGYJBPaY6vTm3bT-164" value="ошибка удаления &lt;br&gt;телеканала из избранного" style="html=1;verticalAlign=bottom;endArrow=open;dashed=1;endSize=8;curved=0;rounded=0;" edge="1" parent="ikeLcuGYJBPaY6vTm3bT-153">
          <mxGeometry x="0.0223" relative="1" as="geometry">
            <mxPoint x="610" y="240" as="sourcePoint" />
            <mxPoint x="400" y="240" as="targetPoint" />
            <Array as="points">
              <mxPoint x="519" y="240" />
              <mxPoint x="420" y="240" />
            </Array>
            <mxPoint as="offset" />
          </mxGeometry>
        </mxCell>
        <mxCell id="ikeLcuGYJBPaY6vTm3bT-165" value="телеканал нельзя&lt;br&gt;&amp;nbsp;удалиить/ телеканал&lt;br&gt;&amp;nbsp;уже был удален" style="html=1;verticalAlign=bottom;endArrow=open;dashed=1;endSize=8;curved=0;rounded=0;" edge="1" parent="ikeLcuGYJBPaY6vTm3bT-153" target="V4jSgGk0EFePXrGotliR-44">
          <mxGeometry x="0.0427" relative="1" as="geometry">
            <mxPoint x="390" y="260" as="sourcePoint" />
            <mxPoint x="190" y="260" as="targetPoint" />
            <Array as="points" />
            <mxPoint as="offset" />
          </mxGeometry>
        </mxCell>
        <mxCell id="ikeLcuGYJBPaY6vTm3bT-167" value="телеканал удален из избранного" style="html=1;verticalAlign=bottom;endArrow=open;dashed=1;endSize=8;curved=0;rounded=0;" edge="1" parent="ikeLcuGYJBPaY6vTm3bT-153">
          <mxGeometry x="0.0521" relative="1" as="geometry">
            <mxPoint x="391" y="390" as="sourcePoint" />
            <mxPoint x="180" y="390" as="targetPoint" />
            <Array as="points" />
            <mxPoint as="offset" />
          </mxGeometry>
        </mxCell>
        <mxCell id="V4jSgGk0EFePXrGotliR-42" value="" style="html=1;points=[[0,0,0,0,5],[0,1,0,0,-5],[1,0,0,0,5],[1,1,0,0,-5]];perimeter=orthogonalPerimeter;outlineConnect=0;targetShapes=umlLifeline;portConstraint=eastwest;newEdgeStyle={&quot;curved&quot;:0,&quot;rounded&quot;:0};" vertex="1" parent="ikeLcuGYJBPaY6vTm3bT-153">
          <mxGeometry x="610" y="60" width="10" height="280" as="geometry" />
        </mxCell>
        <mxCell id="V4jSgGk0EFePXrGotliR-43" value="" style="html=1;points=[[0,0,0,0,5],[0,1,0,0,-5],[1,0,0,0,5],[1,1,0,0,-5]];perimeter=orthogonalPerimeter;outlineConnect=0;targetShapes=umlLifeline;portConstraint=eastwest;newEdgeStyle={&quot;curved&quot;:0,&quot;rounded&quot;:0};" vertex="1" parent="ikeLcuGYJBPaY6vTm3bT-153">
          <mxGeometry x="390" y="40" width="10" height="360" as="geometry" />
        </mxCell>
        <mxCell id="ikeLcuGYJBPaY6vTm3bT-148" value="&lt;span style=&quot;font-family: Inter, system-ui, -apple-system, &amp;quot;system-ui&amp;quot;, &amp;quot;Segoe UI&amp;quot;, Roboto, Oxygen, Ubuntu, Cantarell, &amp;quot;Fira Sans&amp;quot;, &amp;quot;Droid Sans&amp;quot;, Helvetica, Arial, sans-serif; text-align: left; white-space: pre-wrap;&quot;&gt;&lt;font style=&quot;color: rgb(27, 27, 27);&quot;&gt;GET&lt;br&gt;/user/favorites/list&lt;br&gt;&lt;/font&gt;&lt;/span&gt;&lt;span style=&quot;color: rgb(27, 27, 27); font-family: Inter, system-ui, -apple-system, &amp;quot;system-ui&amp;quot;, &amp;quot;Segoe UI&amp;quot;, Roboto, Oxygen, Ubuntu, Cantarell, &amp;quot;Fira Sans&amp;quot;, &amp;quot;Droid Sans&amp;quot;, Helvetica, Arial, sans-serif; text-align: left; white-space: pre-wrap;&quot;&gt;/user/favorites/lis?genre=news&lt;br&gt;/user/favorites/lis?type=channel&lt;br&gt;/user/favorites/list?rating_min=1.0&amp;amp;rating_max=9.0&lt;br&gt;&lt;/span&gt;" style="text;html=1;align=center;verticalAlign=middle;resizable=0;points=[];autosize=1;strokeColor=none;fillColor=none;" vertex="1" parent="ikeLcuGYJBPaY6vTm3bT-139">
          <mxGeometry x="360" y="65" width="310" height="90" as="geometry" />
        </mxCell>
        <mxCell id="V4jSgGk0EFePXrGotliR-39" value="" style="html=1;points=[[0,0,0,0,5],[0,1,0,0,-5],[1,0,0,0,5],[1,1,0,0,-5]];perimeter=orthogonalPerimeter;outlineConnect=0;targetShapes=umlLifeline;portConstraint=eastwest;newEdgeStyle={&quot;curved&quot;:0,&quot;rounded&quot;:0};" vertex="1" parent="ikeLcuGYJBPaY6vTm3bT-139">
          <mxGeometry x="620" y="50" width="10" height="200" as="geometry" />
        </mxCell>
        <mxCell id="V4jSgGk0EFePXrGotliR-40" value="" style="html=1;points=[[0,0,0,0,5],[0,1,0,0,-5],[1,0,0,0,5],[1,1,0,0,-5]];perimeter=orthogonalPerimeter;outlineConnect=0;targetShapes=umlLifeline;portConstraint=eastwest;newEdgeStyle={&quot;curved&quot;:0,&quot;rounded&quot;:0};" vertex="1" parent="ikeLcuGYJBPaY6vTm3bT-139">
          <mxGeometry x="400" y="40" width="10" height="230" as="geometry" />
        </mxCell>
        <mxCell id="V4jSgGk0EFePXrGotliR-41" value="" style="html=1;points=[[0,0,0,0,5],[0,1,0,0,-5],[1,0,0,0,5],[1,1,0,0,-5]];perimeter=orthogonalPerimeter;outlineConnect=0;targetShapes=umlLifeline;portConstraint=eastwest;newEdgeStyle={&quot;curved&quot;:0,&quot;rounded&quot;:0};" vertex="1" parent="ikeLcuGYJBPaY6vTm3bT-139">
          <mxGeometry x="180" y="40" width="10" height="230" as="geometry" />
        </mxCell>
        <mxCell id="ikeLcuGYJBPaY6vTm3bT-54" style="edgeStyle=none;rounded=0;orthogonalLoop=1;jettySize=auto;html=1;endArrow=blockThin;endFill=1;" edge="1" parent="ikeLcuGYJBPaY6vTm3bT-51">
          <mxGeometry relative="1" as="geometry">
            <mxPoint x="839.5" y="46" as="targetPoint" />
            <Array as="points">
              <mxPoint x="470" y="46" />
              <mxPoint x="573" y="46" />
            </Array>
            <mxPoint x="410" y="46" as="sourcePoint" />
          </mxGeometry>
        </mxCell>
        <mxCell id="ikeLcuGYJBPaY6vTm3bT-55" value="Запрос списка телеканалов&lt;br&gt;без фильтрации" style="edgeLabel;html=1;align=center;verticalAlign=middle;resizable=0;points=[];" connectable="0" vertex="1" parent="ikeLcuGYJBPaY6vTm3bT-54">
          <mxGeometry x="0.0981" y="-1" relative="1" as="geometry">
            <mxPoint x="-6" y="-17" as="offset" />
          </mxGeometry>
        </mxCell>
        <mxCell id="ikeLcuGYJBPaY6vTm3bT-161" value="&lt;span style=&quot;font-family: Inter, system-ui, -apple-system, &amp;quot;system-ui&amp;quot;, &amp;quot;Segoe UI&amp;quot;, Roboto, Oxygen, Ubuntu, Cantarell, &amp;quot;Fira Sans&amp;quot;, &amp;quot;Droid Sans&amp;quot;, Helvetica, Arial, sans-serif; text-align: left; white-space: pre-wrap;&quot;&gt;&lt;font style=&quot;color: rgb(27, 27, 27);&quot;&gt;POST&lt;br&gt;/user/auth&lt;/font&gt;&lt;/span&gt;" style="text;html=1;align=center;verticalAlign=middle;resizable=0;points=[];autosize=1;strokeColor=none;fillColor=none;" vertex="1" parent="ikeLcuGYJBPaY6vTm3bT-38">
          <mxGeometry x="480" y="53" width="80" height="40" as="geometry" />
        </mxCell>
        <mxCell id="V4jSgGk0EFePXrGotliR-6" value="" style="html=1;points=[[0,0,0,0,5],[0,1,0,0,-5],[1,0,0,0,5],[1,1,0,0,-5]];perimeter=orthogonalPerimeter;outlineConnect=0;targetShapes=umlLifeline;portConstraint=eastwest;newEdgeStyle={&quot;curved&quot;:0,&quot;rounded&quot;:0};" vertex="1" parent="ikeLcuGYJBPaY6vTm3bT-38">
          <mxGeometry x="635" y="20" width="10" height="190" as="geometry" />
        </mxCell>
        <mxCell id="V4jSgGk0EFePXrGotliR-9" style="edgeStyle=none;rounded=0;orthogonalLoop=1;jettySize=auto;html=1;endArrow=blockThin;endFill=1;" edge="1" parent="ikeLcuGYJBPaY6vTm3bT-38" source="V4jSgGk0EFePXrGotliR-11">
          <mxGeometry relative="1" as="geometry">
            <mxPoint x="635" y="30" as="targetPoint" />
            <Array as="points">
              <mxPoint x="563.5" y="30" />
            </Array>
            <mxPoint x="423" y="30" as="sourcePoint" />
          </mxGeometry>
        </mxCell>
        <mxCell id="V4jSgGk0EFePXrGotliR-10" value="авторизация(логин, пароль)" style="edgeLabel;html=1;align=center;verticalAlign=middle;resizable=0;points=[];" connectable="0" vertex="1" parent="V4jSgGk0EFePXrGotliR-9">
          <mxGeometry x="0.0631" y="-3" relative="1" as="geometry">
            <mxPoint x="-7" y="-13" as="offset" />
          </mxGeometry>
        </mxCell>
        <mxCell id="V4jSgGk0EFePXrGotliR-11" value="" style="html=1;points=[[0,0,0,0,5],[0,1,0,0,-5],[1,0,0,0,5],[1,1,0,0,-5]];perimeter=orthogonalPerimeter;outlineConnect=0;targetShapes=umlLifeline;portConstraint=eastwest;newEdgeStyle={&quot;curved&quot;:0,&quot;rounded&quot;:0};" vertex="1" parent="ikeLcuGYJBPaY6vTm3bT-38">
          <mxGeometry x="415" y="10" width="10" height="220" as="geometry" />
        </mxCell>
        <mxCell id="ikeLcuGYJBPaY6vTm3bT-28" value="успешная авторизация" style="html=1;verticalAlign=bottom;endArrow=open;dashed=1;endSize=8;curved=0;rounded=0;" edge="1" parent="ikeLcuGYJBPaY6vTm3bT-38" source="V4jSgGk0EFePXrGotliR-6" target="V4jSgGk0EFePXrGotliR-11">
          <mxGeometry x="0.0023" relative="1" as="geometry">
            <mxPoint x="630" y="200" as="sourcePoint" />
            <mxPoint x="430" y="200" as="targetPoint" />
            <mxPoint as="offset" />
            <Array as="points">
              <mxPoint x="460" y="200" />
            </Array>
          </mxGeometry>
        </mxCell>
        <mxCell id="ikeLcuGYJBPaY6vTm3bT-71" style="edgeStyle=none;rounded=0;orthogonalLoop=1;jettySize=auto;html=1;endArrow=blockThin;endFill=1;" edge="1" parent="1" source="oFbbETFREsKXqKu5l48W-3" target="oFbbETFREsKXqKu5l48W-7">
          <mxGeometry relative="1" as="geometry">
            <mxPoint x="1119" y="-460" as="targetPoint" />
            <Array as="points">
              <mxPoint x="1072" y="-460" />
            </Array>
            <mxPoint x="920" y="-460" as="sourcePoint" />
          </mxGeometry>
        </mxCell>
        <mxCell id="ikeLcuGYJBPaY6vTm3bT-72" value="Посмотреть список всех телеканалов&lt;div&gt;&amp;nbsp;с фильтрацией по категории/рейтингу&lt;/div&gt;" style="edgeLabel;html=1;align=center;verticalAlign=middle;resizable=0;points=[];" connectable="0" vertex="1" parent="ikeLcuGYJBPaY6vTm3bT-71">
          <mxGeometry x="0.0981" y="-1" relative="1" as="geometry">
            <mxPoint x="-8" y="-21" as="offset" />
          </mxGeometry>
        </mxCell>
        <mxCell id="ikeLcuGYJBPaY6vTm3bT-133" value="&lt;span style=&quot;font-family: Inter, system-ui, -apple-system, &amp;quot;system-ui&amp;quot;, &amp;quot;Segoe UI&amp;quot;, Roboto, Oxygen, Ubuntu, Cantarell, &amp;quot;Fira Sans&amp;quot;, &amp;quot;Droid Sans&amp;quot;, Helvetica, Arial, sans-serif; text-align: left; white-space: pre-wrap;&quot;&gt;&lt;font style=&quot;color: rgb(27, 27, 27);&quot;&gt;POST&lt;br/&gt;/user/favorites/add&lt;/font&gt;&lt;/span&gt;" style="text;html=1;align=center;verticalAlign=middle;resizable=0;points=[];autosize=1;strokeColor=none;fillColor=none;" vertex="1" parent="1">
          <mxGeometry x="1125" y="183" width="130" height="40" as="geometry" />
        </mxCell>
        <mxCell id="ikeLcuGYJBPaY6vTm3bT-160" value="&lt;span style=&quot;font-family: Inter, system-ui, -apple-system, &amp;quot;system-ui&amp;quot;, &amp;quot;Segoe UI&amp;quot;, Roboto, Oxygen, Ubuntu, Cantarell, &amp;quot;Fira Sans&amp;quot;, &amp;quot;Droid Sans&amp;quot;, Helvetica, Arial, sans-serif; font-size: 12px; font-style: normal; font-variant-ligatures: normal; font-variant-caps: normal; font-weight: 400; letter-spacing: normal; orphans: 2; text-align: left; text-indent: 0px; text-transform: none; widows: 2; word-spacing: 0px; -webkit-text-stroke-width: 0px; white-space: pre-wrap; text-decoration-thickness: initial; text-decoration-style: initial; text-decoration-color: initial; float: none; display: inline !important;&quot;&gt;&lt;font style=&quot;color: rgb(27, 27, 27);&quot;&gt;POST&lt;/font&gt;&lt;/span&gt;&lt;div&gt;&lt;span style=&quot;font-family: Inter, system-ui, -apple-system, &amp;quot;system-ui&amp;quot;, &amp;quot;Segoe UI&amp;quot;, Roboto, Oxygen, Ubuntu, Cantarell, &amp;quot;Fira Sans&amp;quot;, &amp;quot;Droid Sans&amp;quot;, Helvetica, Arial, sans-serif; font-size: 12px; font-style: normal; font-variant-ligatures: normal; font-variant-caps: normal; font-weight: 400; letter-spacing: normal; orphans: 2; text-align: left; text-indent: 0px; text-transform: none; widows: 2; word-spacing: 0px; -webkit-text-stroke-width: 0px; white-space: pre-wrap; text-decoration-thickness: initial; text-decoration-style: initial; text-decoration-color: initial; float: none; display: inline !important; color: rgb(255, 255, 255);&quot;&gt;&lt;font style=&quot;color: rgb(27, 27, 27);&quot;&gt;/user/favorites/delete&lt;/font&gt;&lt;/span&gt;&lt;/div&gt;" style="text;whiteSpace=wrap;html=1;" vertex="1" parent="1">
          <mxGeometry x="1164" y="887" width="150" height="40" as="geometry" />
        </mxCell>
        <mxCell id="ikeLcuGYJBPaY6vTm3bT-73" style="edgeStyle=none;rounded=0;orthogonalLoop=1;jettySize=auto;html=1;endArrow=blockThin;endFill=1;" edge="1" parent="1" source="oFbbETFREsKXqKu5l48W-7" target="oFbbETFREsKXqKu5l48W-4">
          <mxGeometry relative="1" as="geometry">
            <mxPoint x="1560" y="-450" as="targetPoint" />
            <Array as="points">
              <mxPoint x="1199" y="-450" />
              <mxPoint x="1302" y="-450" />
              <mxPoint x="1470" y="-450" />
            </Array>
            <mxPoint x="1150" y="-450" as="sourcePoint" />
          </mxGeometry>
        </mxCell>
        <mxCell id="ikeLcuGYJBPaY6vTm3bT-74" value="Запрос списка телеканалов&lt;div&gt;&amp;nbsp;по категории/рейтингу&lt;/div&gt;" style="edgeLabel;html=1;align=center;verticalAlign=middle;resizable=0;points=[];" connectable="0" vertex="1" parent="ikeLcuGYJBPaY6vTm3bT-73">
          <mxGeometry x="0.0981" y="-1" relative="1" as="geometry">
            <mxPoint x="-35" y="-21" as="offset" />
          </mxGeometry>
        </mxCell>
        <mxCell id="ikeLcuGYJBPaY6vTm3bT-166" value="телеканал удален из избранного" style="html=1;verticalAlign=bottom;endArrow=open;dashed=1;endSize=8;curved=0;rounded=0;" edge="1" parent="1" source="oFbbETFREsKXqKu5l48W-8" target="V4jSgGk0EFePXrGotliR-43">
          <mxGeometry x="-0.001" relative="1" as="geometry">
            <mxPoint x="1549" y="1130" as="sourcePoint" />
            <mxPoint x="1150" y="1130" as="targetPoint" />
            <Array as="points">
              <mxPoint x="1249" y="1130" />
            </Array>
            <mxPoint as="offset" />
          </mxGeometry>
        </mxCell>
      </root>
    </mxGraphModel>
  </diagram>
</mxfile>
